<svg xmlns="http://www.w3.org/2000/svg" xmlns:xlink="http://www.w3.org/1999/xlink" width="157" height="50" viewBox="0 0 157 50">
  <defs>
    <clipPath id="clip-mgs-software-vektorel-logo">
      <rect width="157" height="50"/>
    </clipPath>
  </defs>
  <g id="mgs-software-vektorel-logo" clip-path="url(#clip-mgs-software-vektorel-logo)">
    <g id="Group_8383" data-name="Group 8383" transform="translate(-2.155 4.963)">
      <path id="Path_23962" data-name="Path 23962" d="M2.155,4.42H7.3L17.6,18.894C18.227,17.72,27.092,4.42,27.092,4.42h5.193V35.357H26.6V17.892c0-1.266,0-2.863.089-4.084H26.6a38.394,38.394,0,0,1-2.014,3.474l-5.82,9.484H16.3L9.856,17.049a29.082,29.082,0,0,1-2.014-3.194h-.09c.045,1.221.045,2.817.045,3.9v17.6H2.155Z" transform="translate(0 0.055)" fill="#3d7cc9"/>
      <path id="Path_23963" data-name="Path 23963" d="M57.3,33.393a26.8,26.8,0,0,1-11.389,2.489c-10.25,0-16.325-6.526-16.325-15.4,0-9.39,6.786-16.292,17.179-16.292A26.863,26.863,0,0,1,55.834,5.74V11A19.03,19.03,0,0,0,47.2,8.934c-7.545,0-11.532,4.6-11.532,11.173,0,6.666,3.939,11.034,10.68,11.034a13.273,13.273,0,0,0,5.219-.94V20.389h5.742Z" transform="translate(6.995 0)" fill="#3d7cc9"/>
      <path id="Path_23964" data-name="Path 23964" d="M57.645,28.889a12.4,12.4,0,0,0,7.071,2.254c2.609,0,5.219-.986,5.219-3.663,0-6.055-13.525-5.3-13.525-14.741,0-4.554,3.654-8.544,10.155-8.544a17.868,17.868,0,0,1,7.642,1.549v5.164a16.392,16.392,0,0,0-7.451-1.972c-2.184,0-4.272.845-4.272,3.333,0,5.68,13.526,4.93,13.526,14.742,0,5.492-4.746,8.873-11.153,8.873a16.936,16.936,0,0,1-9.444-2.677Z" transform="translate(13.577 -0.002)" fill="#3d7cc9"/>
      <g id="Group_8377" data-name="Group 8377" transform="translate(97.048 28.206)">
        <path id="Path_23965" data-name="Path 23965" d="M78.916,27.126l1.118,1.918h-1.2l-1.069-1.918,1.069-1.91h1.2Z" transform="translate(-77.766 -22.849)" fill="#3d7cc9"/>
        <path id="Path_23966" data-name="Path 23966" d="M81.973,29.058a3.052,3.052,0,0,0,1.544.434c.881,0,1.4-.464,1.4-1.137,0-.624-.356-.98-1.258-1.327-1.088-.387-1.761-.95-1.761-1.89a1.921,1.921,0,0,1,2.156-1.811,3.041,3.041,0,0,1,1.475.326l-.237.7a2.663,2.663,0,0,0-1.266-.315c-.91,0-1.256.544-1.256,1,0,.624.405.931,1.325,1.286,1.128.435,1.7.98,1.7,1.96,0,1.029-.762,1.918-2.336,1.918a3.438,3.438,0,0,1-1.7-.425Z" transform="translate(-76.754 -23.326)" fill="#3d7cc9"/>
        <path id="Path_23967" data-name="Path 23967" d="M91.692,26.706c0,2.3-1.394,3.514-3.1,3.514-1.762,0-3-1.367-3-3.386,0-2.117,1.317-3.5,3.1-3.5C90.514,23.331,91.692,24.725,91.692,26.706Zm-5.174.108c0,1.426.773,2.7,2.127,2.7s2.137-1.256,2.137-2.771c0-1.325-.693-2.711-2.127-2.711s-2.137,1.315-2.137,2.78Z" transform="translate(-75.773 -23.33)" fill="#3d7cc9"/>
        <path id="Path_23968" data-name="Path 23968" d="M91.347,23.418h3.592v.722H92.208v2.218h2.524v.713H92.208v3.017h-.861Z" transform="translate(-74.307 -23.308)" fill="#3d7cc9"/>
        <path id="Path_23969" data-name="Path 23969" d="M96.611,24.151H94.582v-.733H99.52v.733H97.482v5.936h-.871Z" transform="translate(-73.482 -23.308)" fill="#3d7cc9"/>
        <path id="Path_23970" data-name="Path 23970" d="M100.372,30.506l1.841-7.175h1.138l-1.841,7.175Z" transform="translate(-72.006 -23.33)" fill="#3d7cc9"/>
        <path id="Path_23971" data-name="Path 23971" d="M106.239,30.087l-1.693-6.669h.911l.791,3.373c.2.832.377,1.663.494,2.307h.02c.109-.663.318-1.456.544-2.315l.892-3.365h.9l.812,3.385c.188.791.365,1.582.464,2.285h.02c.138-.733.326-1.473.535-2.305l.881-3.365h.88l-1.89,6.669h-.9l-.841-3.473a19.979,19.979,0,0,1-.436-2.176h-.02a20.945,20.945,0,0,1-.515,2.176l-.95,3.473Z" transform="translate(-70.942 -23.308)" fill="#3d7cc9"/>
        <path id="Path_23972" data-name="Path 23972" d="M112.432,27.99l-.693,2.1h-.89l2.265-6.669h1.039l2.275,6.669h-.92l-.712-2.1Zm2.188-.673-.654-1.92c-.148-.435-.247-.83-.346-1.217H113.6c-.1.4-.208.8-.338,1.207l-.652,1.93Z" transform="translate(-69.335 -23.308)" fill="#3d7cc9"/>
        <path id="Path_23973" data-name="Path 23973" d="M116.08,23.516a8.971,8.971,0,0,1,1.653-.138,2.727,2.727,0,0,1,1.929.544,1.657,1.657,0,0,1,.525,1.266,1.752,1.752,0,0,1-1.256,1.7v.029a1.662,1.662,0,0,1,.98,1.346,10.436,10.436,0,0,0,.515,1.83h-.891a8.6,8.6,0,0,1-.446-1.593c-.2-.921-.553-1.268-1.335-1.3h-.812V30.1h-.862Zm.861,3.037h.881c.92,0,1.5-.5,1.5-1.266,0-.861-.624-1.237-1.535-1.246a3.51,3.51,0,0,0-.851.079Z" transform="translate(-68.001 -23.317)" fill="#3d7cc9"/>
        <path id="Path_23974" data-name="Path 23974" d="M123.775,26.96h-2.593v2.405h2.889v.722h-3.751V23.418h3.6v.722h-2.741v2.108h2.593Z" transform="translate(-66.917 -23.308)" fill="#3d7cc9"/>
        <path id="Path_23975" data-name="Path 23975" d="M125.453,25.216h1.177l1.088,1.91-1.088,1.918h-1.177l1.117-1.918Z" transform="translate(-65.611 -22.849)" fill="#3d7cc9"/>
      </g>
      <g id="Group_8378" data-name="Group 8378" transform="translate(97.327 4.547)">
        <path id="Path_23976" data-name="Path 23976" d="M100.442,4.478,78.594,19.057l.327.49L101.5,4.478Z" transform="translate(-77.838 -4.478)" fill="#75777b"/>
        <circle id="Ellipse_36" data-name="Ellipse 36" cx="0.946" cy="0.946" r="0.946" transform="translate(0 13.86)" fill="#75777b"/>
      </g>
      <g id="Group_8379" data-name="Group 8379" transform="translate(97.327 4.547)">
        <path id="Path_23977" data-name="Path 23977" d="M100.442,4.478,78.594,19.057l.327.49L101.5,4.478Z" transform="translate(-77.838 -4.478)" fill="#898a8d"/>
        <circle id="Ellipse_37" data-name="Ellipse 37" cx="0.946" cy="0.946" r="0.946" transform="translate(0 13.86)" fill="#898a8d"/>
      </g>
      <g id="Group_8380" data-name="Group 8380" transform="translate(97.327 4.547)">
        <path id="Path_23978" data-name="Path 23978" d="M95.135,4.478,78.594,15.519l.327.49L96.2,4.478Z" transform="translate(-77.838 -4.478)" fill="#75777b"/>
        <circle id="Ellipse_38" data-name="Ellipse 38" cx="0.946" cy="0.946" r="0.946" transform="translate(0 10.322)" fill="#75777b"/>
      </g>
      <g id="Group_8381" data-name="Group 8381" transform="translate(97.327 4.547)">
        <path id="Path_23979" data-name="Path 23979" d="M89.83,4.478l-11.236,7.5.327.491L90.892,4.478Z" transform="translate(-77.838 -4.478)" fill="#75777b"/>
        <circle id="Ellipse_39" data-name="Ellipse 39" cx="0.946" cy="0.946" r="0.946" transform="translate(0 6.785)" fill="#75777b"/>
      </g>
      <g id="Group_8382" data-name="Group 8382" transform="translate(97.327 4.547)">
        <path id="Path_23980" data-name="Path 23980" d="M84.526,4.478,78.593,8.445l.328.49,6.667-4.457Z" transform="translate(-77.838 -4.478)" fill="#75777b"/>
        <circle id="Ellipse_40" data-name="Ellipse 40" cx="0.946" cy="0.946" r="0.946" transform="translate(0 3.248)" fill="#75777b"/>
        <circle id="Ellipse_41" data-name="Ellipse 41" cx="0.946" cy="0.946" r="0.946" transform="translate(0 0.021)" fill="#75777b"/>
      </g>
    </g>
  </g>
</svg>
